<svg fill="none" height="20" viewBox="0 0 20 20" width="20" xmlns="http://www.w3.org/2000/svg"
    xmlns:xlink="http://www.w3.org/1999/xlink">
    <clipPath id="a">
        <path d="m0 0h20v20h-20z" />
    </clipPath>
    <g clip-path="url(#a)" fill="currentColor">
        <path
            d="m15.3627 12.6915c.0067.0077.0133.0166.02.0256.4976.6428.495.6633-.1291 1.172-.4205.3437-.8397.6888-1.2628 1.0288-.3433.276-.5243.2952-.8383.0051-.3327-.3067-.6427-.6403-.9222-.9918-.161-.2032-.2528-.2428-.4551-.0549-.6121.5661-1.2934 1.0416-2.14901 1.1911-1.17233.2045-2.33666.248-3.39455-.4179-.85961-.5419-1.25216-1.3599-1.33865-2.3056-.19694-2.1753 1.05788-3.79202 3.30272-4.23295.93813-.18404 1.89619-.28245 2.84899-.40003.499-.06135.5256-.05112.5043-.53295-.016-.35658-.0412-.72082-.1331-1.06334-.1131-.42815-.4737-.67737-.9022-.76045-1.05784-.20576-2.05584.16615-2.31399 1.2116-.07851.32079-.26747.41665-.6201.37831-.5815-.06391-1.163-.12653-1.74584-.18916-.5642-.06006-.67731-.22749-.52029-.763.35529-1.21926 1.15502-2.06278 2.37791-2.5101 1.72056-.62753 3.45571-.6697 5.16431.03706 1.171.48566 1.8031 1.37903 1.867 2.59829.0921 1.75388-.6773 4.98682.64 6.57432zm-3.8097-2.3823c0-.2121-.008-.4243.0027-.63518.0106-.216-.0759-.3208-.3088-.29396-.459.0524-.9248.07413-1.37587.16359-1.22023.24284-1.90552 1.27425-1.62342 2.43345.11577.4754.38057.8486.91417.9956.69594.1904 1.42112-.1035 1.89622-.7847.3979-.5701.511-1.2078.495-1.8788z" />
        <path
            d="m.0586839 15.3141c.0825021.0281.1716561.0447.2475051.0856 1.506321.7988 3.101801 1.3905 4.766471 1.7854 1.45708.3451 2.93679.556 4.45109.5815 1.20825.0205 2.40715-.0204 3.59815-.1814 1.312-.1777 2.5908-.5113 3.8403-.942.2901-.0997.5749-.2198.8716-.2965.1065-.0281.2409.0409.3633.0652-.0612.101-.0958.239-.1877.2991-.8196.5457-1.6952.9905-2.648 1.2857-.5136.1585-1.014.3706-1.5396.4767-.9128.1841-1.835.331-2.7598.4473-1.46107.1841-2.90618.0051-4.33931-.2735-2.24484-.4358-4.26214-1.347-6.066534-2.6954-.228876-.17-.436461-.3655-.65469116-.5496.01996006-.0294.03858936-.0587.05854936-.0881z" />
        <path
            d="m18.6282 18.1054c.1038-.2748.2089-.524.2941-.7797.1238-.3719.2515-.7438.3433-1.1234.1025-.4256-.165-.7489-.6573-.7489-.6028 0-1.2043.0588-1.8071.0907-.0918.0051-.185 0-.2768 0-.0106-.0294-.0213-.0575-.0319-.0869.9268-.5275 1.8995-.5784 2.9381-.5201.4152.023.5828.1712.5709.5444-.0293.9713-.4112 1.8097-1.1018 2.5178-.0857.0881-.1554.0965-.2701.1022z" />
    </g>
</svg>