<svg xmlns="http://www.w3.org/2000/svg" width="24" height="24" viewBox="0 0 24 24" fill="none" stroke="currentColor"
    stroke-width="2" stroke-linecap="round" stroke-linejoin="round">
    <path d="M12 21.5V19" />
    <path d="M16 12h.01" />
    <path
        d="M16.65 4q.3 0 .59.1.29.09.53.26.25.18.44.42.18.24.29.52v12.44q-.11.29-.3.52-.2.24-.45.41-.26.17-.55.25-.29.09-.6.08H7.35q-.3 0-.59-.1-.29-.09-.53-.26-.25-.18-.44-.42-.18-.24-.29-.52V5.26q.11-.29.3-.52.2-.24.45-.41.26-.17.55-.25.29-.09.6-.08z" />
    <path d="M18.5 9.5h-13" />
    <path d="M19.5 17v2" />
    <path d="M19.5 7h.01" />
    <path d="M4.5 17v2" />
    <path d="M4.5 7h.01" />
    <path d="M8 12h.01" />
    <rect x="11" y="15" width="2" height="3" />
</svg>