<svg fill="none" height="20" viewBox="0 0 20 20" width="20" xmlns="http://www.w3.org/2000/svg">
    <path clip-rule="evenodd"
        d="m1.28864 9.50001c-.17864.3094-.17863.69059 0 .99999l3.92265 6.7942c.17863.3094.50876.5.86602.5h7.84529c.3573 0 .6874-.1906.866-.5l3.9227-6.7942c.1786-.3094.1786-.69059 0-.99999l-3.9227-6.79423c-.1786-.3094-.5087-.5-.866-.5h-7.84529c-.35726 0-.68739.1906-.86602.5zm6.71133-3.50001c-.55229 0-1 .44772-1 1s.44771 1 1 1h4.00003c.5523 0 1-.44772 1-1s-.4477-1-1-1zm-1 7c0-.5523.44771-1 1-1h4.00003c.5523 0 1 .4477 1 1s-.4477 1-1 1h-4.00003c-.55229 0-1-.4477-1-1zm-1-4c-.55229 0-1 .44772-1 1 0 .5523.44771 1 1 1h8.00003c.5523 0 1-.4477 1-1 0-.55228-.4477-1-1-1z"
        fill="currentColor" fill-rule="evenodd" />
</svg>