<svg xmlns="http://www.w3.org/2000/svg" width="32" height="32" viewBox="0 0 32 32" fill="none" stroke="currentColor"
    stroke-width="2" stroke-linecap="round" stroke-linejoin="round">
    <path
        d="m16.11 24.97l1.86-5.56c0 0 0.4-2.36 2.36-2.36 1.96 0 4.15 0.08 4.15 0.08 0 0 1.36-0.1 1.83 1.36 0.47 1.45 1.85 6.48 1.85 6.48 0 0 0.68 1.98-1.7 1.96-3.77-0.02-8.49-0.1-8.49-0.1 0 0-2.62 0.28-1.86-1.86z" />
    <path
        d="m3.14 24.97l1.85-5.56c0 0 0.41-2.36 2.37-2.36 1.96 0 4.14 0.08 4.14 0.08 0 0 1.36-0.1 1.83 1.36 0.47 1.45 1.86 6.48 1.86 6.48 0 0 0.67 1.98-1.7 1.96-3.78-0.02-8.5-0.1-8.5-0.1 0 0-2.61 0.28-1.85-1.86z" />
    <path
        d="m9.63 13.92l1.85-5.56c0 0 0.4-2.36 2.36-2.36 1.96 0 4.15 0.08 4.15 0.08 0 0 1.36-0.1 1.83 1.36 0.47 1.45 1.86 6.48 1.86 6.48 0 0 0.67 1.98-1.71 1.96-3.77-0.02-8.49-0.1-8.49-0.1 0 0-2.61 0.28-1.85-1.86z" />
</svg>