<svg xmlns="http://www.w3.org/2000/svg" width="24" height="24" viewBox="0 0 24 24" fill="none" stroke="currentColor"
    stroke-width="2" stroke-linecap="round" stroke-linejoin="round">
    <path d="m10.55 15.57-3.46-2.68" />
    <path
        d="M15.36 10.82a30 30 0 0 0 4.44-3.46c2.4-2.29 1.68-4.03-.35-5.38-1.59-1.06-4.28-1.09-5.37.75-1.02 1.71-2.41 4.94-2.41 4.94z" />
    <path d="m17.45 1.82-1.78 2.97" />
    <path
        d="M2.61 18.86c1.13-2.19 2.79-4.32 4.26-5.98a44 44 0 0 1 3.21-3.27l3.65 3.06s-5.77 7.53-7.81 8.56c-4.59 2.31-3.34-2.34-3.34-2.34" />
    <path d="M20.33 3.23 17.67 6.2" />
</svg>