<svg fill="none" height="20" viewBox="0 0 20 20" width="20" xmlns="http://www.w3.org/2000/svg">
    <g fill="currentColor">
        <path
            d="m10.2746 9.60865h-.72033v-1.65263h.71543c.2057 0 .3756.03468.5095.10404.134.06775.2336.16373.2989.28794.067.1226.1005.26617.1005.4307 0 .16293-.0335.3073-.1005.43312-.0653.12421-.1649.22181-.2989.29278-.1323.06937-.3005.10405-.5046.10405z" />
        <path clip-rule="evenodd"
            d="m6.25 3.00317v-.75317c0-.9665.7835-1.75 1.75-1.75h4c.9665 0 1.75.7835 1.75 1.75v.75317c1.5144.01336 2.393.08311 3.0939.44718.7306.3795 1.3263.97518 1.7058 1.70575.4503.86696.4503 2.00594.4503 4.2839v3.12c0 2.278 0 3.4169-.4503 4.2839-.3795.7306-.9752 1.3263-1.7058 1.7058-.867.4503-2.0059.4503-4.2839.4503h-5.12c-2.27796 0-3.41694 0-4.2839-.4503-.73057-.3795-1.32625-.9752-1.70575-1.7058-.45035-.867-.45035-2.0059-.45035-4.2839v-3.12c0-2.27796 0-3.41694.45035-4.2839.3795-.73057.97518-1.32625 1.70575-1.70575.70085-.36407 1.57948-.43382 3.0939-.44718zm1.5-.75317c0-.13807.11193-.25.25-.25h4c.1381 0 .25.11193.25.25v.75h-4.5zm.04707 4.75v8h-.82902l-1.975-4.5517h-.03325v4.5517h-.9598v-8h.84232l1.95949 4.5h.0399v-4.5zm.69639 8-.00002-7.90055h1.97956c.3806 0 .7048.07179.9726.21535.2679.14196.4721.33956.6125.59282.1421.25165.2132.54201.2132.87108 0 .32908-.0719.61944-.2156.87108-.1438.25165-.352.44762-.6248.58802-.2711.1403-.5994.2105-.9849.2105h-.89173l.00001 4.5517zm5.85434-8c-.9124 0-1.6521.59755-1.6521 1.33466v.6255c0 .63604.2283 1.25844.6575 1.79174l1.3013 1.6173c.1971.245.302.5309.302.823v.3406c0 .4267-.4282.7727-.9565.7727s-.9565-.346-.9565-.7727v-.9132h-1.0435v.9132c0 .8923.8954 1.6156 2 1.6156s2-.7233 2-1.6156v-.3406c0-.4552-.1635-.9007-.4706-1.2824l-1.3014-1.6173c-.319-.39656-.4889-.85938-.4889-1.33234v-.6255c0-.27157.2726-.49172.6087-.49172.3362 0 .6087.22015.6087.49172v.91318h1.0435v-.91318c0-.73711-.7397-1.33466-1.6522-1.33466z"
            fill-rule="evenodd" />
    </g>
</svg>