<svg width="1200" height="800" viewBox="0 0 1200 800" xmlns="http://www.w3.org/2000/svg">
  <defs>
    <!-- Background Gradient -->
    <radialGradient id="bgGradient" cx="50%" cy="50%" r="70%">
      <stop offset="0%" stop-color="#f9fbe7" />
      <stop offset="40%" stop-color="#c8e6c9" />
      <stop offset="100%" stop-color="#d1c4e9" />
    </radialGradient>

    <!-- Frosted Glass Filter -->
    <filter id="frosted" x="-50%" y="-50%" width="200%" height="200%">
      <feGaussianBlur in="SourceGraphic" stdDeviation="6" result="blur" />
      <feColorMatrix in="blur" type="matrix" values="1 0 0 0 0
                0 1 0 0 0
                0 0 1 0 0
                0 0 0 0.5 0" />
    </filter>

    <!-- Glow Filter -->
    <filter id="glow" x="-50%" y="-50%" width="200%" height="200%">
      <feGaussianBlur stdDeviation="8" result="blur" />
      <feMerge>
        <feMergeNode in="blur" />
        <feMergeNode in="SourceGraphic" />
      </feMerge>
    </filter>

    <!-- Coin Gradient -->
    <radialGradient id="coinGradient" cx="50%" cy="50%" r="50%">
      <stop offset="0%" stop-color="#FFD54F" />
      <stop offset="70%" stop-color="#FFB74D" />
      <stop offset="100%" stop-color="#F06292" />
    </radialGradient>

    <!-- Warm Light -->
    <radialGradient id="warmLight" cx="0%" cy="0%" r="60%">
      <stop offset="0%" stop-color="rgba(255,223,186,0.8)" />
      <stop offset="100%" stop-color="transparent" />
    </radialGradient>

    <!-- Cool Light -->
    <radialGradient id="coolLight" cx="100%" cy="100%" r="60%">
      <stop offset="0%" stop-color="rgba(173,216,230,0.6)" />
      <stop offset="100%" stop-color="transparent" />
    </radialGradient>
  </defs>

  <!-- Background -->
  <rect width="1200" height="800" fill="url(#bgGradient)" />
  <circle cx="0" cy="0" r="500" fill="url(#warmLight)" />
  <circle cx="1200" cy="800" r="500" fill="url(#coolLight)" />

  <!-- Bokeh -->
  <g opacity="0.3">
    <circle cx="250" cy="180" r="30" fill="white" filter="url(#glow)" />
    <circle cx="950" cy="620" r="20" fill="white" filter="url(#glow)" />
    <circle cx="780" cy="220" r="25" fill="white" filter="url(#glow)" />
  </g>

  <!-- Wallet with Perspective -->
  <g filter="url(#frosted)">
    <!-- Outer Wallet -->
    <path d="M400 300 C420 280, 700 280, 720 300 L740 460 C720 480, 420 480, 400 460 Z" fill="rgba(255,255,255,0.25)"
      stroke="white" stroke-width="4" />
    <!-- Inner Panel -->
    <path d="M430 320 C450 310, 670 310, 690 320 L710 440 C690 450, 450 450, 430 440 Z" fill="rgba(255,255,255,0.15)"
      stroke="white" stroke-width="2" />
    <!-- Clasp -->
    <circle cx="730" cy="380" r="12" fill="white" opacity="0.8" />
  </g>

  <!-- Coins -->
  <g>
    <g transform="translate(520,280) rotate(-10)">
      <circle r="40" fill="url(#coinGradient)" filter="url(#glow)" />
      <path d="M-10 -10 L10 10 M0 -20 L0 20" stroke="white" stroke-width="6" stroke-linecap="round" />
    </g>
    <g transform="translate(600,340) rotate(5)">
      <circle r="40" fill="url(#coinGradient)" filter="url(#glow)" />
      <path d="M-10 -10 L10 10 M0 -20 L0 20" stroke="white" stroke-width="6" stroke-linecap="round" />
    </g>
    <g transform="translate(480,380) rotate(-15)">
      <circle r="40" fill="url(#coinGradient)" filter="url(#glow)" />
      <path d="M-10 -10 L10 10 M0 -20 L0 20" stroke="white" stroke-width="6" stroke-linecap="round" />
    </g>
    <g transform="translate(640,260) rotate(10)">
      <circle r="40" fill="url(#coinGradient)" filter="url(#glow)" />
      <path d="M-10 -10 L10 10 M0 -20 L0 20" stroke="white" stroke-width="6" stroke-linecap="round" />
    </g>
  </g>

  <!-- Shadow -->
  <ellipse cx="560" cy="500" rx="190" ry="35" fill="rgba(0,0,0,0.15)" filter="url(#frosted)" />
</svg>